<?xml version="1.0" encoding="UTF-8" standalone="no"?>
<svg
        xmlns:dc="http://purl.org/dc/elements/1.1/"
        xmlns:cc="http://creativecommons.org/ns#"
        xmlns:rdf="http://www.w3.org/1999/02/22-rdf-syntax-ns#"
        xmlns:sodipodi="http://sodipodi.sourceforge.net/DTD/sodipodi-0.dtd"
        xmlns:inkscape="http://www.inkscape.org/namespaces/inkscape"
        xmlns="http://www.w3.org/2000/svg"
        viewBox="0 0 368 78.609039"
        version="1.1"
        id="svg14"
        sodipodi:docname="microsoft.svg"
        width="368"
        height="78.609039"
        inkscape:version="0.92.2 2405546, 2018-03-11">
    <metadata
            id="metadata20">
        <rdf:RDF>
            <cc:Work
                    rdf:about="">
                <dc:format>image/svg+xml</dc:format>
                <dc:type
                        rdf:resource="http://purl.org/dc/dcmitype/StillImage"/>
                <dc:title>Microsoft logo</dc:title>
            </cc:Work>
        </rdf:RDF>
    </metadata>
    <defs
            id="defs18"/>
    <sodipodi:namedview
            pagecolor="#ffffff"
            bordercolor="#666666"
            borderopacity="1"
            objecttolerance="10"
            gridtolerance="10"
            guidetolerance="10"
            inkscape:pageopacity="0"
            inkscape:pageshadow="2"
            inkscape:window-width="1920"
            inkscape:window-height="1015"
            id="namedview16"
            showgrid="false"
            fit-margin-top="0"
            fit-margin-left="0"
            fit-margin-right="0"
            fit-margin-bottom="0"
            inkscape:zoom="0.57450331"
            inkscape:cx="184.05"
            inkscape:cy="39.30452"
            inkscape:window-x="3120"
            inkscape:window-y="508"
            inkscape:window-maximized="1"
            inkscape:current-layer="svg14"/>
    <title
            id="title2">Microsoft logo
    </title>
    <path
            d="m 129.9182,45.276371 -2.19374,6.215598 h -0.18281 c -0.36563,-1.401556 -1.03594,-3.53436 -2.13281,-6.093724 L 113.64795,15.843683 h -11.51713 v 47.104488 h 7.61715 V 33.881107 c 0,-1.828118 0,-3.899984 -0.0609,-6.459348 -0.0609,-1.279682 -0.18281,-2.254678 -0.24374,-2.985925 h 0.18281 c 0.36562,1.828117 0.79218,3.168737 1.09687,4.021858 l 14.13744,34.368604 h 5.36247 l 14.01557,-34.67329 c 0.30469,-0.792184 0.60937,-2.376553 0.91406,-3.717172 h 0.18281 c -0.18281,3.473423 -0.30469,6.581222 -0.36562,8.470277 v 29.859248 h 8.10465 v -47.04355 h -11.09058 z m 30.83424,-16.270244 h 7.92184 v 33.759232 h -7.92184 z m 4.02186,-14.259314 c -1.34062,0 -2.43749,0.487498 -3.35155,1.340619 -0.91406,0.853121 -1.40155,1.949992 -1.40155,3.290611 0,1.279682 0.48749,2.376553 1.40155,3.229674 0.91406,0.853121 2.01093,1.279682 3.35155,1.279682 1.34062,0 2.49843,-0.487498 3.35155,-1.279682 0.91406,-0.853121 1.40156,-1.949992 1.40156,-3.229674 0,-1.279682 -0.4875,-2.376552 -1.40156,-3.290611 -0.79219,-0.853121 -1.94999,-1.340619 -3.35155,-1.340619 m 31.99205,13.954628 c -1.46249,-0.304686 -2.98592,-0.487498 -4.44842,-0.487498 -3.59529,0 -6.8859,0.792184 -9.62808,2.376552 -2.74218,1.584369 -4.93592,3.778109 -6.33747,6.520285 -1.4625,2.803113 -2.19374,6.032787 -2.19374,9.749959 0,3.229674 0.73124,6.093724 2.1328,8.714025 1.40156,2.559365 3.35155,4.631231 5.97185,6.032787 2.49843,1.401557 5.42341,2.132804 8.71402,2.132804 3.77811,0 7.00779,-0.792184 9.56715,-2.254678 l 0.0609,-0.06094 v -7.312466 l -0.30469,0.243749 c -1.15781,0.853121 -2.49842,1.584368 -3.83904,2.010929 -1.40156,0.487497 -2.68124,0.731246 -3.77811,0.731246 -3.16874,0 -5.66717,-0.914058 -7.43435,-2.924987 -1.82811,-1.949992 -2.74217,-4.63123 -2.74217,-7.982779 0,-3.473422 0.91406,-6.215598 2.80311,-8.226527 1.88906,-2.010929 4.38748,-3.046862 7.43434,-3.046862 2.55937,0 5.17967,0.853121 7.55622,2.559364 l 0.30469,0.243749 v -7.73903 l -0.0609,-0.06094 c -1.03593,-0.426561 -2.19374,-0.914059 -3.77811,-1.218745 m 26.14208,-0.243749 c -1.94999,0 -3.77811,0.609372 -5.36248,1.889055 -1.34062,1.09687 -2.25468,2.681238 -3.04686,4.570293 h -0.0609 v -5.910913 h -7.92184 v 33.759232 h 7.92184 V 45.52012 c 0,-2.924988 0.60937,-5.362478 1.94999,-7.129658 1.34062,-1.828117 3.04687,-2.742175 5.11873,-2.742175 0.73125,0 1.4625,0.182811 2.37655,0.304686 0.85313,0.243749 1.4625,0.487498 1.88906,0.792184 l 0.30469,0.243749 v -7.921842 l -0.18282,-0.06094 c -0.54843,-0.365623 -1.6453,-0.548435 -2.98592,-0.548435 m 21.57178,-0.182812 c -5.54529,0 -9.99371,1.645306 -13.1015,4.87498 -3.16874,3.229673 -4.69217,7.678092 -4.69217,13.284318 0,5.240603 1.58437,9.50621 4.63123,12.614009 3.04686,3.046862 7.19059,4.631231 12.37026,4.631231 5.42341,0 9.74996,-1.645306 12.85776,-4.935917 3.16873,-3.290611 4.69216,-7.678092 4.69216,-13.101507 0,-5.362477 -1.46249,-9.628084 -4.44842,-12.735883 -2.86405,-3.1078 -7.06872,-4.631231 -12.30932,-4.631231 m 6.33748,25.959265 c -1.4625,1.889055 -3.77811,2.803113 -6.64216,2.803113 -2.86405,0 -5.17967,-0.914058 -6.82498,-2.924987 -1.6453,-1.889055 -2.43748,-4.631231 -2.43748,-8.104653 0,-3.595298 0.85312,-6.337474 2.43748,-8.287465 1.64531,-1.949992 3.89999,-2.924988 6.76404,-2.924988 2.80311,0 4.99685,0.914059 6.58122,2.803113 1.58437,1.889055 2.43749,4.631231 2.43749,8.226528 -0.12187,3.656234 -0.79218,6.520285 -2.31561,8.409339 M 278.90979,43.02169 c -2.49842,-1.035933 -4.08279,-1.828118 -4.81404,-2.498427 -0.60937,-0.609373 -0.91406,-1.462494 -0.91406,-2.559364 0,-0.914059 0.36563,-1.828118 1.27968,-2.43749 0.91406,-0.609372 1.95,-0.914059 3.47343,-0.914059 1.34062,0 2.74217,0.243749 4.08279,0.609373 1.34062,0.365623 2.55937,0.914058 3.53436,1.645305 l 0.30469,0.243749 v -7.434343 l -0.18281,-0.06094 c -0.91406,-0.365624 -2.13281,-0.731247 -3.5953,-1.035933 -1.46249,-0.243749 -2.80311,-0.365624 -3.89998,-0.365624 -3.77811,0 -6.88591,0.914059 -9.3234,2.924988 -2.43749,1.889054 -3.5953,4.448418 -3.5953,7.434343 0,1.584368 0.24375,2.985925 0.79219,4.143733 0.54843,1.157807 1.34061,2.254677 2.43749,3.168736 1.09687,0.853121 2.68123,1.828117 4.87497,2.742176 1.82812,0.792184 3.22968,1.401556 4.0828,1.889054 0.85312,0.487498 1.40156,1.035933 1.82812,1.462494 0.30468,0.487498 0.48749,1.096871 0.48749,1.889055 0,2.254678 -1.70624,3.351548 -5.17966,3.351548 -1.34062,0 -2.74218,-0.243749 -4.38748,-0.792184 -1.64531,-0.548435 -3.16874,-1.34062 -4.44842,-2.254678 l -0.30469,-0.243749 v 7.73903 l 0.18281,0.06094 c 1.15781,0.548435 2.55937,0.914058 4.26561,1.340619 1.70624,0.304686 3.22968,0.548435 4.57029,0.548435 4.0828,0 7.43435,-0.914058 9.8109,-2.924987 2.43749,-1.949992 3.71717,-4.448419 3.71717,-7.678093 0,-2.254678 -0.60937,-4.265607 -1.94999,-5.789038 -1.76718,-1.462493 -3.96092,-2.985924 -7.12966,-4.204669 m 29.98113,-14.746813 c -5.54529,0 -9.99371,1.645306 -13.10151,4.87498 -3.1078,3.229673 -4.69217,7.678092 -4.69217,13.284318 0,5.240603 1.58437,9.50621 4.63123,12.614009 3.04686,3.046862 7.1906,4.631231 12.37026,4.631231 5.42342,0 9.74996,-1.645306 12.85776,-4.935917 3.16874,-3.290611 4.69217,-7.678092 4.69217,-13.101507 0,-5.362477 -1.4625,-9.628084 -4.44842,-12.735883 -2.86405,-3.1078 -7.06872,-4.631231 -12.30932,-4.631231 m 6.27653,25.959265 c -1.46249,1.889055 -3.77811,2.803113 -6.64216,2.803113 -2.92499,0 -5.17966,-0.914058 -6.82497,-2.924987 -1.6453,-1.889055 -2.43749,-4.631231 -2.43749,-8.104653 0,-3.595298 0.85312,-6.337474 2.43749,-8.287465 1.64531,-1.949992 3.89998,-2.924988 6.76404,-2.924988 2.74217,0 4.99685,0.914059 6.58122,2.803113 1.58437,1.889055 2.43749,4.631231 2.43749,8.226528 0,3.656234 -0.79219,6.520285 -2.31562,8.409339 M 368,35.526412 v -6.520285 h -7.98278 V 19.01242 l -0.24375,0.06094 -7.55622,2.254678 -0.18281,0.06094 v 7.617155 h -11.9437 v -4.265607 c 0,-1.949991 0.4875,-3.473422 1.34062,-4.448418 0.85312,-0.974996 2.13281,-1.462494 3.71717,-1.462494 1.09687,0 2.25468,0.243749 3.53436,0.792184 l 0.30469,0.182812 v -6.885908 l -0.18281,-0.06094 c -1.09687,-0.365623 -2.55937,-0.609372 -4.44842,-0.609372 -2.37655,0 -4.44842,0.548435 -6.33747,1.462494 -1.88906,1.035933 -3.29061,2.437489 -4.32655,4.326544 -1.03593,1.828117 -1.58437,3.899983 -1.58437,6.276536 v 4.692167 h -5.54528 v 6.459348 h 5.54528 v 27.299884 h 7.98278 V 35.526412 h 11.9437 v 17.367114 c 0,7.129657 3.35155,10.724954 10.05465,10.724954 1.09687,0 2.25468,-0.182811 3.35155,-0.365623 1.1578,-0.243749 2.01092,-0.548435 2.49842,-0.792184 l 0.0609,-0.06094 v -6.520282 l -0.30469,0.243749 c -0.48749,0.304686 -0.91405,0.548435 -1.6453,0.731246 -0.60937,0.182812 -1.15781,0.243749 -1.58437,0.243749 -1.58437,0 -2.68124,-0.365623 -3.47342,-1.279682 -0.73125,-0.853121 -1.09687,-2.254678 -1.09687,-4.326544 V 35.526412 Z"
            id="path4"
            inkscape:connector-curvature="0"
            style="fill:#737373;stroke-width:0.60937244"/>
    <path
            d="M 0,0 H 37.35453 V 37.354529 H 0 Z"
            id="path6"
            inkscape:connector-curvature="0"
            style="fill:#f25022;stroke-width:0.60937244"/>
    <path
            d="M 41.25451,0 H 78.60904 V 37.354529 H 41.25451 Z"
            id="path8"
            inkscape:connector-curvature="0"
            style="fill:#7fba00;stroke-width:0.60937244"/>
    <path
            d="M 0,41.254513 H 37.35453 V 78.609041 H 0 Z"
            id="path10"
            inkscape:connector-curvature="0"
            style="fill:#00a4ef;stroke-width:0.60937244"/>
    <path
            d="M 41.25451,41.254513 H 78.60904 V 78.609041 H 41.25451 Z"
            id="path12"
            inkscape:connector-curvature="0"
            style="fill:#ffb900;stroke-width:0.60937244"/>
</svg>
